<svg width="431" height="584" viewBox="0 0 431 584" fill="none" xmlns="http://www.w3.org/2000/svg">
<rect x="169.396" y="498" width="52.1016" height="23" rx="11.5" fill="#E6E2E5" fill-opacity="0.33"/>
<rect x="378.416" y="161" width="52.1016" height="23" rx="11.5" fill="#E6E2E5" fill-opacity="0.33"/>
<rect x="0.789062" y="83" width="52.1016" height="23" rx="11.5" fill="#E6E2E5" fill-opacity="0.33"/>
<rect x="125.254" y="310" width="52.1016" height="23" rx="11.5" fill="#E6E2E5" fill-opacity="0.31"/>
<path d="M65.916 7.95996C65.916 3.56379 69.4798 0 73.876 0H74.3359C78.4781 0 81.8359 3.35786 81.8359 7.5V7.5C81.8359 11.6421 85.1938 15 89.3359 15H89.894C94.0362 15 97.394 11.6421 97.394 7.5V7.5C97.394 3.35786 100.752 0 104.894 0H171.868C178.496 0 183.868 5.37258 183.868 12V30C183.868 36.6274 178.496 42 171.868 42H77.916C71.2886 42 65.916 36.6274 65.916 30V7.95996Z" fill="#DADBE6" fill-opacity="0.33"/>
<path d="M189.657 405.69C189.657 401.995 192.653 399 196.348 399V399C200.042 399 203.038 401.995 203.038 405.69V407.462C203.038 411.073 205.965 414 209.576 414V414C213.187 414 216.114 411.073 216.114 407.462V406.5C216.114 402.358 219.472 399 223.614 399H276.795C283.422 399 288.795 404.373 288.795 411V429C288.795 435.627 283.422 441 276.795 441H201.657C195.03 441 189.657 435.627 189.657 429V405.69Z" fill="#DADBE6" fill-opacity="0.33"/>
<path d="M26.8398 448.96C26.8398 444.564 30.4036 441 34.7998 441H35.2598C39.4019 441 42.7598 444.358 42.7598 448.5V448.5C42.7598 452.642 46.1176 456 50.2598 456H50.8179C54.96 456 58.3179 452.642 58.3179 448.5V448.5C58.3179 444.358 61.6757 441 65.8179 441H132.792C139.419 441 144.792 446.373 144.792 453V471C144.792 477.627 139.419 483 132.792 483H38.8398C32.2124 483 26.8398 477.627 26.8398 471V448.96Z" fill="#DADBE6" fill-opacity="0.33"/>
<path d="M177.759 164.672C177.759 169.271 181.487 173 186.087 173H188.344C191.697 173 194.415 170.282 194.415 166.929V166.929C194.415 163.575 197.133 160.857 200.486 160.857H204.621C207.975 160.857 210.693 163.575 210.693 166.929V166.929C210.693 170.282 213.411 173 216.764 173H289.168C295.795 173 301.168 167.627 301.168 161V151C301.168 144.373 295.795 139 289.168 139H189.759C183.131 139 177.759 144.373 177.759 151V164.672Z" fill="#DADBE6" fill-opacity="0.33"/>
<path d="M293.631 367.649C293.631 372.261 297.37 376 301.982 376H302.654C306.895 376 310.333 372.562 310.333 368.321V368.321C310.333 364.081 313.77 360.643 318.011 360.643H318.976C323.216 360.643 326.654 364.081 326.654 368.321V368.321C326.654 372.562 330.092 376 334.333 376H405.372C412 376 417.372 370.627 417.372 364V345C417.372 338.373 412 333 405.372 333H305.631C299.004 333 293.631 338.373 293.631 345V367.649Z" fill="#DADBE6" fill-opacity="0.33"/>
<path d="M317.017 68.8236C317.017 71.6824 319.334 74 322.193 74H323.084C325.451 74 327.369 72.0812 327.369 69.7143V69.7143C327.369 67.3474 329.288 65.4286 331.655 65.4286H333.201C335.568 65.4286 337.487 67.3474 337.487 69.7143V69.7143C337.487 72.0812 339.406 74 341.773 74H381.722C388.349 74 393.722 68.6274 393.722 62V62C393.722 55.3726 388.349 50 381.722 50H329.017C322.389 50 317.017 55.3726 317.017 62V68.8236Z" fill="#DADBE6" fill-opacity="0.33"/>
<path d="M36.2471 261.824C36.2471 264.682 38.5646 267 41.4235 267H42.3142C44.6811 267 46.5999 265.081 46.5999 262.714V262.714C46.5999 260.347 48.5187 258.429 50.8856 258.429H52.4317C54.7987 258.429 56.7174 260.347 56.7174 262.714V262.714C56.7174 265.081 58.6362 267 61.0032 267H100.952C107.58 267 112.952 261.627 112.952 255V255C112.952 248.373 107.58 243 100.952 243H48.2471C41.6197 243 36.2471 248.373 36.2471 255V261.824Z" fill="#DADBE6" fill-opacity="0.33"/>
<path d="M247.548 277.176C247.548 274.318 249.865 272 252.724 272H253.794C256.062 272 257.901 273.839 257.901 276.107V276.107C257.901 278.375 259.74 280.214 262.008 280.214H263.911C266.179 280.214 268.018 278.375 268.018 276.107V276.107C268.018 273.839 269.857 272 272.125 272H312.753C319.104 272 324.253 277.149 324.253 283.5V283.5C324.253 289.851 319.104 295 312.753 295H259.048C252.697 295 247.548 289.851 247.548 283.5V277.176Z" fill="#DADBE6" fill-opacity="0.33"/>
<path d="M317.183 566.176C317.183 563.318 319.5 561 322.359 561H323.428C325.697 561 327.535 562.839 327.535 565.107V565.107C327.535 567.375 329.374 569.214 331.643 569.214H333.546C335.814 569.214 337.653 567.375 337.653 565.107V565.107C337.653 562.839 339.492 561 341.76 561H382.388C388.739 561 393.888 566.149 393.888 572.5V572.5C393.888 578.851 388.739 584 382.388 584H328.683C322.331 584 317.183 578.851 317.183 572.5V566.176Z" fill="#DADBE6" fill-opacity="0.33"/>
<path d="M36.4504 543.176C36.4504 540.318 38.7679 538 41.6268 538H42.6961C44.9644 538 46.8032 539.839 46.8032 542.107V542.107C46.8032 544.375 48.642 546.214 50.9104 546.214H52.8136C55.0819 546.214 56.9208 544.375 56.9208 542.107V542.107C56.9208 539.839 58.7596 538 61.0279 538H101.655C108.007 538 113.155 543.149 113.155 549.5V549.5C113.155 555.851 108.007 561 101.655 561H47.9504C41.5991 561 36.4504 555.851 36.4504 549.5V543.176Z" fill="#DADBE6" fill-opacity="0.33"/>
</svg>
