<svg width="1017" height="600" viewBox="0 0 1017 600" fill="none" xmlns="http://www.w3.org/2000/svg">
<g clip-path="url(#clip0)">
<rect width="1017" height="600" fill="white"/>
<path d="M-21.4855 -9H1019V600H281.422H-23V578V558V536.585V516V481.256V448V412V390V369.337V336V307V288V270V258V242V227.004V178.344V166V154V125V93L-21.4855 51V-9Z" fill="#3D0B7A"/>
<path d="M1019 316C1019 470.916 1019 466 1019 570C846.687 570 748 445.416 748 290.5C748 135.584 846.687 6 1019 6C1019 178 1019 161.084 1019 316Z" fill="#330769" fill-opacity="0.8"/>
<rect x="529" y="503" width="30" height="15" rx="7.5" fill="#222A72"/>
<path d="M638 103.929C638 99.5501 641.55 96 645.929 96H646.895C650.741 96 653.859 99.118 653.859 102.964C653.859 106.811 656.977 109.929 660.823 109.929H663.428C667.275 109.929 670.393 106.811 670.393 102.964C670.393 99.118 673.511 96 677.357 96H739C743.971 96 748 100.029 748 105V126C748 130.971 743.971 135 739 135H647C642.029 135 638 130.971 638 126V103.929Z" fill="#390A72"/>
<path d="M449 318.929C449 314.55 452.55 311 456.929 311H457.895C461.741 311 464.859 314.118 464.859 317.964C464.859 321.811 467.977 324.929 471.823 324.929H474.428C478.275 324.929 481.393 321.811 481.393 317.964C481.393 314.118 484.511 311 488.357 311H550C554.971 311 559 315.029 559 320V341C559 345.971 554.971 350 550 350H458C453.029 350 449 345.971 449 341V318.929Z" fill="#390A72"/>
<path d="M651 206C651 201.029 655.029 197 660 197H787C791.971 197 796 201.029 796 206V230C796 234.971 791.971 239 787 239H699.56C695.832 239 692.81 235.978 692.81 232.25C692.81 228.522 689.788 225.5 686.06 225.5H680.879C677.151 225.5 674.129 228.522 674.129 232.25C674.129 235.978 671.107 239 667.379 239H660C655.029 239 651 234.971 651 230V206Z" fill="#390A72"/>
<path d="M449 56C449 51.0294 453.029 47 458 47H585C589.971 47 594 51.0294 594 56V80C594 84.9706 589.971 89 585 89H497.56C493.832 89 490.81 85.9779 490.81 82.25C490.81 78.5221 487.788 75.5 484.06 75.5H478.879C475.151 75.5 472.129 78.5221 472.129 82.25C472.129 85.9779 469.107 89 465.379 89H458C453.029 89 449 84.9706 449 80V56Z" fill="#390A72"/>
<path d="M731 21C731 14.3726 736.373 9 743 9H753.619C756.867 9 759.5 11.633 759.5 14.881C759.5 18.1289 762.133 20.7619 765.381 20.7619H776.119C779.367 20.7619 782 18.1289 782 14.881C782 11.633 784.633 9 787.881 9H882C888.627 9 894 14.3726 894 21V35C894 41.6274 888.627 47 882 47H789.25C785.246 47 782 50.2459 782 54.25C782 58.2541 778.754 61.5 774.75 61.5H766.75C762.746 61.5 759.5 58.2541 759.5 54.25C759.5 50.2459 756.254 47 752.25 47H743C736.373 47 731 41.6274 731 35V21Z" fill="#390A72"/>
<path d="M569 362C569 355.373 574.373 350 581 350H599.742C603.332 350 606.242 352.91 606.242 356.5C606.242 360.09 609.152 363 612.742 363H629.144C632.734 363 635.644 360.09 635.644 356.5C635.644 352.91 638.554 350 642.144 350H770C776.627 350 782 355.373 782 362V380C782 386.627 776.627 392 770 392H641.144C638.107 392 635.644 394.462 635.644 397.5C635.644 400.538 633.182 403 630.144 403H611.742C608.705 403 606.242 400.538 606.242 397.5C606.242 394.462 603.78 392 600.742 392H581C574.373 392 569 386.627 569 380V362Z" fill="#390A72"/>
<path d="M714 476C714 469.925 718.925 465 725 465H728.5C732.642 465 736 468.358 736 472.5C736 476.642 739.358 480 743.5 480H750C754.142 480 757.5 476.642 757.5 472.5C757.5 468.358 760.858 465 765 465H865C871.627 465 877 470.373 877 477V495C877 501.627 871.627 507 865 507H726C719.373 507 714 501.627 714 495V476Z" fill="#390A72"/>
<path d="M494 189.25C494 185.798 496.798 183 500.25 183H500.75C503.926 183 506.5 185.574 506.5 188.75C506.5 191.926 509.074 194.5 512.25 194.5H515.25C518.426 194.5 521 191.926 521 188.75C521 185.574 523.574 183 526.75 183H577C583.627 183 589 188.373 589 195V198C589 204.627 583.627 210 577 210H506C499.373 210 494 204.627 494 198V189.25Z" fill="#390A72"/>
<path d="M474 503.25C474 499.798 476.798 497 480.25 497H480.75C483.926 497 486.5 499.574 486.5 502.75C486.5 505.926 489.074 508.5 492.25 508.5H495.25C498.426 508.5 501 505.926 501 502.75C501 499.574 503.574 497 506.75 497H557C563.627 497 569 502.373 569 509V512C569 518.627 563.627 524 557 524H486C479.373 524 474 518.627 474 512V503.25Z" fill="#390A72"/>
<rect x="910" y="388" width="72" height="23" rx="11.5" fill="#390A72"/>
<path d="M795 271C795 264.373 800.373 259 807 259H946C952.627 259 958 264.373 958 271V289C958 295.627 952.627 301 946 301H856.571C851.838 301 848 304.838 848 309.571C848 313.122 845.122 316 841.571 316H831C826.858 316 823.5 312.642 823.5 308.5C823.5 304.358 820.142 301 816 301H807C800.373 301 795 295.627 795 289V271Z" fill="#390A72"/>
<path d="M807 156C807 149.373 812.373 144 819 144H865C871.627 144 877 149.373 877 156V157.053C877 163.68 871.627 169.053 865 169.053H834.874C832.05 169.053 829.761 171.342 829.761 174.165C829.761 176.283 828.044 178 825.926 178H823.713C821.242 178 819.239 175.997 819.239 173.526C819.239 171.056 817.236 169.053 814.766 169.053H813.12C809.74 169.053 807 166.313 807 162.933V156Z" fill="#390A72"/>
<path d="M934 131C934 124.373 939.373 119 946 119H955.5C959.918 119 963.5 122.582 963.5 127C963.5 131.418 967.082 135 971.5 135H978.5C982.918 135 986.5 131.418 986.5 127C986.5 122.582 990.082 119 994.5 119H1019V161H946C939.373 161 934 155.627 934 149V131Z" fill="#390A72"/>
<path d="M245.931 556.914C246.594 557.373 247.5 556.898 247.5 556.091V553C247.5 550.791 249.291 549 251.5 549H314C316.209 549 318 550.791 318 553V566.5C318 568.709 316.209 570.5 314 570.5H251.5C249.291 570.5 247.5 568.709 247.5 566.5V563.563C247.5 562.833 246.744 562.349 246.081 562.655L243.838 563.69C242.513 564.302 241 563.334 241 561.874V557.317C241 555.704 242.812 554.754 244.138 555.673L245.931 556.914Z" fill="#390A72"/>
<path d="M631.931 47.9136C632.594 48.3728 633.5 47.8981 633.5 47.0914V44C633.5 41.7909 635.291 40 637.5 40H700C702.209 40 704 41.7909 704 44V57.5C704 59.7091 702.209 61.5 700 61.5H637.5C635.291 61.5 633.5 59.7091 633.5 57.5V54.5629C633.5 53.8331 632.744 53.3491 632.081 53.655L629.838 54.6901C628.513 55.3017 627 54.3338 627 52.8742V48.3171C627 46.7038 628.812 45.7544 630.138 46.6728L631.931 47.9136Z" fill="#390A72"/>
<path d="M112.931 399.914C113.594 400.373 114.5 399.898 114.5 399.091V396C114.5 393.791 116.291 392 118.5 392H181C183.209 392 185 393.791 185 396V409.5C185 411.709 183.209 413.5 181 413.5H118.5C116.291 413.5 114.5 411.709 114.5 409.5V406.563C114.5 405.833 113.744 405.349 113.081 405.655L110.838 406.69C109.513 407.302 108 406.334 108 404.874V400.317C108 398.704 109.812 397.754 111.138 398.673L112.931 399.914Z" fill="#390A72"/>
<path d="M631.931 545.914C632.594 546.373 633.5 545.898 633.5 545.091V542C633.5 539.791 635.291 538 637.5 538H700C702.209 538 704 539.791 704 542V555.5C704 557.709 702.209 559.5 700 559.5H637.5C635.291 559.5 633.5 557.709 633.5 555.5V552.563C633.5 551.833 632.744 551.349 632.081 551.655L629.838 552.69C628.513 553.302 627 552.334 627 550.874V546.317C627 544.704 628.812 543.754 630.138 544.673L631.931 545.914Z" fill="#390A72"/>
<path d="M322.931 42.9136C323.594 43.3728 324.5 42.8981 324.5 42.0914V39C324.5 36.7909 326.291 35 328.5 35H391C393.209 35 395 36.7909 395 39V52.5C395 54.7091 393.209 56.5 391 56.5H328.5C326.291 56.5 324.5 54.7091 324.5 52.5V49.5629C324.5 48.8331 323.744 48.3491 323.081 48.655L320.838 49.6901C319.513 50.3017 318 49.3338 318 47.8742V43.3171C318 41.7038 319.812 40.7544 321.138 41.6728L322.931 42.9136Z" fill="#390A72"/>
<path d="M20.9308 149.914C21.594 150.373 22.5 149.898 22.5 149.091V146C22.5 143.791 24.2909 142 26.5 142H89C91.2091 142 93 143.791 93 146V159.5C93 161.709 91.2091 163.5 89 163.5H26.5C24.2909 163.5 22.5 161.709 22.5 159.5V156.563C22.5 155.833 21.7436 155.349 21.0809 155.655L18.8381 156.69C17.5129 157.302 16 156.334 16 154.874V150.317C16 148.704 17.812 147.754 19.1384 148.673L20.9308 149.914Z" fill="#390A72"/>
<path d="M103 62C103 55.9249 107.925 51 114 51H117.5C121.642 51 125 54.3579 125 58.5C125 62.6421 128.358 66 132.5 66H139C143.142 66 146.5 62.6421 146.5 58.5C146.5 54.3579 149.858 51 154 51H254C260.627 51 266 56.3726 266 63V81C266 87.6274 260.627 93 254 93H153C149.41 93 146.5 95.9101 146.5 99.5C146.5 103.09 143.59 106 140 106H131.5C127.91 106 125 103.09 125 99.5C125 95.9101 122.09 93 118.5 93H114C107.925 93 103 88.0751 103 82V62Z" fill="#390A72"/>
<path d="M311 448C311 441.925 315.925 437 322 437H325.5C329.642 437 333 440.358 333 444.5C333 448.642 336.358 452 340.5 452H347C351.142 452 354.5 448.642 354.5 444.5C354.5 440.358 357.858 437 362 437H462C468.627 437 474 442.373 474 449V467C474 473.627 468.627 479 462 479H361C357.41 479 354.5 481.91 354.5 485.5C354.5 489.09 351.59 492 348 492H339.5C335.91 492 333 489.09 333 485.5C333 481.91 330.09 479 326.5 479H322C315.925 479 311 474.075 311 468V448Z" fill="#390A72"/>
<path d="M49 503C49 496.925 53.9249 492 60 492H63.5C67.6421 492 71 495.358 71 499.5C71 503.642 74.3579 507 78.5 507H85C89.1421 507 92.5 503.642 92.5 499.5C92.5 495.358 95.8579 492 100 492H200C206.627 492 212 497.373 212 504V522C212 528.627 206.627 534 200 534H61C54.3726 534 49 528.627 49 522V503Z" fill="#390A72"/>
<path d="M257 212.46C257 218.833 262.167 224 268.54 224H272.58C276.722 224 280.08 227.358 280.08 231.5C280.08 235.642 283.438 239 287.58 239H297.5C301.642 239 305 235.642 305 231.5C305 227.358 308.358 224 312.5 224H416C422.627 224 428 218.627 428 212V193C428 186.373 422.627 181 416 181H269C262.373 181 257 186.373 257 193V212.46Z" fill="#390A72"/>
<path d="M322 125.847C322 129.797 325.203 133 329.153 133H331.057C333.956 133 336.307 135.351 336.307 138.25C336.307 141.149 338.657 143.5 341.557 143.5H345.038C347.938 143.5 350.288 141.149 350.288 138.25C350.288 135.351 352.639 133 355.538 133H420C424.418 133 428 129.418 428 125V117C428 112.582 424.418 109 420 109H330C325.582 109 322 112.582 322 117V125.847Z" fill="#390A72"/>
<path d="M265 307.153C265 303.203 268.203 300 272.153 300H275.2C277.468 300 279.307 301.839 279.307 304.107C279.307 306.375 281.146 308.214 283.414 308.214H289.181C291.45 308.214 293.288 306.375 293.288 304.107C293.288 301.839 295.127 300 297.395 300H363C367.418 300 371 303.582 371 308V315C371 319.418 367.418 323 363 323H296.038C294.52 323 293.288 324.231 293.288 325.75C293.288 327.269 292.057 328.5 290.538 328.5H282.057C280.538 328.5 279.307 327.269 279.307 325.75C279.307 324.231 278.076 323 276.557 323H272.153C268.203 323 265 319.797 265 315.847V307.153Z" fill="#390A72"/>
<path d="M25 225.153C25 221.203 28.2027 218 32.1534 218H35.1996C37.4679 218 39.3067 219.839 39.3067 222.107C39.3067 224.375 41.1456 226.214 43.4139 226.214H49.1812C51.4495 226.214 53.2883 224.375 53.2883 222.107C53.2883 219.839 55.1272 218 57.3955 218H123C127.418 218 131 221.582 131 226V233C131 237.418 127.418 241 123 241H56.0383C54.5196 241 53.2883 242.231 53.2883 243.75C53.2883 245.269 52.0571 246.5 50.5383 246.5H42.0567C40.538 246.5 39.3067 245.269 39.3067 243.75C39.3067 242.231 38.0755 241 36.5567 241H32.1534C28.2027 241 25 237.797 25 233.847V225.153Z" fill="#390A72"/>
<path d="M79 300.847C79 304.797 82.2027 308 86.1534 308H89.4158C91.5647 308 93.3067 306.258 93.3067 304.109C93.3067 301.96 95.0488 300.218 97.1977 300.218H103.397C105.546 300.218 107.288 301.96 107.288 304.109C107.288 306.258 109.03 308 111.179 308H177C181.418 308 185 304.418 185 300V294.211C185 289.792 181.418 286.211 177 286.211H109.894C108.455 286.211 107.288 285.044 107.288 283.605C107.288 282.166 106.122 281 104.683 281H95.912C94.4732 281 93.3067 282.166 93.3067 283.605C93.3067 285.044 92.1403 286.211 90.7015 286.211H86.1534C82.2027 286.211 79 289.413 79 293.364V300.847Z" fill="#390A72"/>
<path d="M614.931 293.914C615.594 294.373 616.5 293.898 616.5 293.091V290C616.5 287.791 618.291 286 620.5 286H683C685.209 286 687 287.791 687 290V303.5C687 305.709 685.209 307.5 683 307.5H620.5C618.291 307.5 616.5 305.709 616.5 303.5V300.563C616.5 299.833 615.744 299.349 615.081 299.655L612.838 300.69C611.513 301.302 610 300.334 610 298.874V294.317C610 292.704 611.812 291.754 613.138 292.673L614.931 293.914Z" fill="#390A72"/>
</g>
<defs>
<clipPath id="clip0">
<rect width="1017" height="600" fill="white"/>
</clipPath>
</defs>
</svg>
