<svg width="150" height="300" viewBox="0 0 150 300" fill="none" xmlns="http://www.w3.org/2000/svg">
<path d="M1 79C1 80.6569 2.34315 82 4 82H55C56.6569 82 58 80.6569 58 79V68.2963C58 66.6394 56.6569 65.2963 55 65.2963H25.8981C24.8498 65.2963 24 64.4465 24 63.3981V63.3981C24 62.3498 23.1502 61.5 22.1019 61.5H13.3981C12.3498 61.5 11.5 62.3498 11.5 63.3981V63.3981C11.5 64.4465 10.6502 65.2963 9.60185 65.2963H4C2.34315 65.2963 1 66.6394 1 68.2963V79Z" fill="#FD2EC3"/>
<path d="M0 3C0 1.34314 1.34315 0 3 0H72C73.6569 0 75 1.34315 75 3V15.9815C75 17.6383 73.6569 18.9815 72 18.9815H30C28.3431 18.9815 27 20.3339 27 21.9907V21.9907C27 23.6476 25.6569 25 24 25H13.8553C12.1984 25 10.8553 23.6476 10.8553 21.9907V21.9907C10.8553 20.3339 9.51212 18.9815 7.85526 18.9815H3C1.34315 18.9815 0 17.6383 0 15.9815V3Z" fill="#6F7CB2"/>
<path d="M10 39C10 37.3431 11.3431 36 13 36H83C84.6569 36 86 37.3431 86 39V49C86 50.6569 84.6569 52 83 52H34.5C32.8431 52 31.5 53.3431 31.5 55V58C31.5 59.6569 30.1569 61 28.5 61H20.5C18.8431 61 17.5 59.6569 17.5 58V55C17.5 53.3431 16.1569 52 14.5 52H13C11.3431 52 10 50.6569 10 49V39Z" fill="#70A6F7"/>
<path d="M0 65C0 66.6569 1.34315 68 3 68H8.5C9.88071 68 11 66.8807 11 65.5V65.5C11 64.1193 12.1193 63 13.5 63H21.5C22.8807 63 24 64.1193 24 65.5V65.5C24 66.8807 25.1193 68 26.5 68L69 68C70.6569 68 72 66.6569 72 65V54.6449C72 52.988 70.6569 51.6449 69 51.6449L33.6776 51.6449C32.4749 51.6449 31.5 52.6198 31.5 53.8224V53.8224C31.5 55.0251 30.5251 56 29.3224 56H22.1776C20.9749 56 20 55.0251 20 53.8224V53.8224C20 52.6198 19.0251 51.6449 17.8224 51.6449H14C12.3431 51.6449 11 50.3017 11 48.6449L11 38.757C11 37.1002 12.3431 35.757 14 35.757L69 35.757C70.6569 35.757 72 34.4139 72 32.757V21C72 19.3431 70.6569 18 69 18L27 18C25.3431 18 24 19.3431 24 21V21.0634C24 22.7202 22.6569 24.0634 21 24.0634H14C12.3431 24.0634 11 22.7202 11 21.0634V21C11 19.3431 9.65685 18 8 18H3C1.34315 18 0 19.3431 0 21L0 65Z" fill="#514ED8"/>
<path d="M76 157C76 155.343 77.3431 154 79 154H138C139.657 154 141 155.343 141 157V169.741C141 171.398 139.657 172.741 138 172.741H104.358C103.182 172.741 102.228 173.694 102.228 174.87V174.87C102.228 176.047 101.275 177 100.098 177H90.1033C88.9272 177 87.9737 176.047 87.9737 174.87V174.87C87.9737 173.694 87.0202 172.741 85.8441 172.741H79C77.3431 172.741 76 171.398 76 169.741V157Z" fill="#FD2EC3"/>
<path d="M76 139C76 137.343 77.3431 136 79 136H138C139.657 136 141 137.343 141 139V151.741C141 153.398 139.657 154.741 138 154.741H104.358C103.182 154.741 102.228 155.694 102.228 156.87V156.87C102.228 158.047 101.275 159 100.098 159H90.1033C88.9272 159 87.9737 158.047 87.9737 156.87V156.87C87.9737 155.694 87.0202 154.741 85.8441 154.741H79C77.3431 154.741 76 153.398 76 151.741V139Z" fill="#514ED8"/>
<path d="M75 121C75 119.343 76.3431 118 78 118H147C148.657 118 150 119.343 150 121V133.981C150 135.638 148.657 136.981 147 136.981H105C103.343 136.981 102 138.334 102 139.991V139.991C102 141.648 100.657 143 99 143H88.8553C87.1984 143 85.8553 141.648 85.8553 139.991V139.991C85.8553 138.334 84.5121 136.981 82.8553 136.981H78C76.3431 136.981 75 135.638 75 133.981V121Z" fill="#6F7CB2"/>
<path d="M15 219C15 217.343 16.3431 216 18 216H71.5C73.1569 216 74.5 217.343 74.5 219V231.981C74.5 233.638 73.1569 234.981 71.5 234.981H45C43.3431 234.981 42 236.334 42 237.991V237.991C42 239.648 40.6569 241 39 241H28.8553C27.1984 241 25.8553 239.648 25.8553 237.991V237.991C25.8553 236.334 24.5121 234.981 22.8553 234.981H18C16.3431 234.981 15 233.638 15 231.981V219Z" fill="#514ED8"/>
<path d="M25 269C25 267.343 26.3431 266 28 266H98C99.6569 266 101 267.343 101 269V279C101 280.657 99.6569 282 98 282H49.5C47.8431 282 46.5 283.343 46.5 285V288C46.5 289.657 45.1569 291 43.5 291H35.5C33.8431 291 32.5 289.657 32.5 288V285C32.5 283.343 31.1569 282 29.5 282H28C26.3431 282 25 280.657 25 279V269Z" fill="#514ED8"/>
<path d="M25 254C25 252.343 26.3431 251 28 251H98C99.6569 251 101 252.343 101 254V264C101 265.657 99.6569 267 98 267H49.5C47.8431 267 46.5 268.343 46.5 270V270C46.5 271.657 45.1569 273 43.5 273H38C36.3431 273 35 271.657 35 270V270C35 268.343 33.6569 267 32 267H28C26.3431 267 25 265.657 25 264V254Z" fill="#FD2EC3"/>
<path d="M15 297C15 298.657 16.3431 300 18 300H26H39H84C85.6569 300 87 298.657 87 297V284.723C87 283.066 85.6569 281.723 84 281.723H49.2923C47.7502 281.723 46.5 282.973 46.5 284.515V284.515C46.5 286.058 45.2498 287.308 43.7077 287.308H37.7923C36.2502 287.308 35 286.058 35 284.515V284.515C35 282.973 33.7498 281.723 32.2077 281.723H29C27.3431 281.723 26 280.38 26 278.723L26 255.03C26 253.373 27.3431 252.03 29 252.03H84C85.6569 252.03 87 250.687 87 249.03L87 237C87 235.343 85.6569 234 84 234H42C40.3431 234 39 235.343 39 237V237.157C39 238.814 37.6569 240.157 36 240.157H29C27.3431 240.157 26 238.814 26 237.157V237C26 235.343 24.6569 234 23 234H18C16.3431 234 15 235.343 15 237L15 297Z" fill="#70A6F7"/>
</svg>
