<svg width="172" height="157" viewBox="0 0 172 157" fill="none" xmlns="http://www.w3.org/2000/svg">
<path d="M0 137.509C0 135.571 1.57112 134 3.5092 134H4.71264C5.98608 134 7.0184 135.032 7.0184 136.306V136.306C7.0184 137.579 8.05073 138.612 9.32417 138.612H11.5715C12.845 138.612 13.8773 137.579 13.8773 136.306V136.306C13.8773 135.032 14.9096 134 16.1831 134H45.5439C49.1095 134 52 136.891 52 140.456V140.456C52 144.022 49.1095 146.912 45.5439 146.912H15.4212C14.5685 146.912 13.8773 147.603 13.8773 148.456V148.456C13.8773 149.309 13.1861 150 12.3334 150H8.56226C7.70961 150 7.0184 149.309 7.0184 148.456V148.456C7.0184 147.603 6.3272 146.912 5.47454 146.912H3.5092C1.57112 146.912 0 145.341 0 143.403V137.509Z" fill="#DADBE6" fill-opacity="0.33"/>
<path d="M0 64.5C0 62.8431 1.34315 61.5 3 61.5H5.06453C6.72139 61.5 8.06453 62.8431 8.06453 64.5V67.2303C8.06453 68.8872 9.40768 70.2303 11.0645 70.2303H12.9458C14.6026 70.2303 15.9458 68.8872 15.9458 67.2303V64.5C15.9458 62.8431 17.2889 61.5 18.9458 61.5H56.7509C58.4077 61.5 59.7509 62.8431 59.7509 64.5V82.9449C59.7509 84.6018 58.4077 85.9449 56.7509 85.9449H3C1.34315 85.9449 0 84.6018 0 82.9449V64.5Z" fill="#DADBE6" fill-opacity="0.33"/>
<path d="M37 114.653C37 116.778 38.7222 118.5 40.8466 118.5V118.5C42.9711 118.5 44.6933 116.778 44.6933 114.653V113.429C44.6933 112.876 45.141 112.429 45.6933 112.429H51.2117C51.7639 112.429 52.2117 112.876 52.2117 113.429V113.5C52.2117 116.261 54.4502 118.5 57.2117 118.5H89C91.7614 118.5 94 116.261 94 113.5V106.5C94 103.739 91.7614 101.5 89 101.5H42C39.2386 101.5 37 103.739 37 106.5V114.653Z" fill="#DADBE6" fill-opacity="0.33"/>
<path d="M88.0605 3.11986C88.0605 1.39681 89.4574 0 91.1804 0H91.9098C93.23 0 94.3003 1.07024 94.3003 2.39045V2.39045C94.3003 3.71066 95.3705 4.7809 96.6907 4.7809H98.0077C99.3279 4.7809 100.398 3.71066 100.398 2.39045V2.39045C100.398 1.07024 101.468 0 102.789 0H129.291C132.053 0 134.291 2.23858 134.291 5V8.38651C134.291 11.1479 132.053 13.3865 129.291 13.3865H93.0605C90.2991 13.3865 88.0605 11.1479 88.0605 8.38652V3.11986Z" fill="#DADBE6" fill-opacity="0.33"/>
<path d="M117.692 146.233C117.692 144.51 119.089 143.114 120.812 143.114H121.541C122.862 143.114 123.932 144.184 123.932 145.504V145.504C123.932 146.824 125.002 147.894 126.322 147.894H127.639C128.96 147.894 130.03 146.824 130.03 145.504V145.504C130.03 144.184 131.1 143.114 132.42 143.114H159.923C162.132 143.114 163.923 144.904 163.923 147.114V152.5C163.923 154.709 162.132 156.5 159.923 156.5H121.692C119.483 156.5 117.692 154.709 117.692 152.5V146.233Z" fill="#DADBE6" fill-opacity="0.33"/>
<path d="M135.195 90.3837C135.62 90.762 136.292 90.4603 136.292 89.8913V89.2635C136.292 87.185 137.977 85.5 140.056 85.5H168C170.209 85.5 172 87.2909 172 89.5V95.5C172 97.7091 170.209 99.5 168 99.5H140.138C138.014 99.5 136.292 97.778 136.292 95.6538V95.2412C136.292 94.678 135.679 94.3289 135.195 94.6163V94.6163C134.226 95.1911 133 94.4929 133 93.3665V91.3685C133 90.2306 134.345 89.6272 135.195 90.3837V90.3837Z" fill="#E6E2E5" fill-opacity="0.33"/>
<path d="M0 17.0092C0 15.0711 1.57112 13.5 3.5092 13.5H4.71264C5.98608 13.5 7.0184 14.5323 7.0184 15.8058V15.8058C7.0184 17.0792 8.05073 18.1115 9.32417 18.1115H11.5715C12.845 18.1115 13.8773 17.0792 13.8773 15.8058V15.8058C13.8773 14.5323 14.9096 13.5 16.1831 13.5H45.5439C49.1095 13.5 52 16.3905 52 19.9561V19.9561C52 23.5218 49.1095 26.4123 45.5439 26.4123H15.4212C14.5685 26.4123 13.8773 27.1035 13.8773 27.9561V27.9561C13.8773 28.8088 13.1861 29.5 12.3334 29.5H8.56226C7.70961 29.5 7.0184 28.8088 7.0184 27.9561V27.9561C7.0184 27.1035 6.3272 26.4123 5.47454 26.4123H3.5092C1.57112 26.4123 0 24.8412 0 22.9031V17.0092Z" fill="#DADBE6" fill-opacity="0.33"/>
<path d="M89 56.4387C89 59.234 91.266 61.5 94.0614 61.5H95.3758C97.4452 61.5 99.1227 59.8225 99.1227 57.7531V57.7531C99.1227 55.6838 100.8 54.0063 102.87 54.0063H105.268C107.338 54.0063 109.015 55.6838 109.015 57.7531V57.7531C109.015 59.8225 110.693 61.5 112.762 61.5H156C160.418 61.5 164 57.9183 164 53.5V48.5175C164 44.0993 160.418 40.5175 156 40.5175H111.524C110.139 40.5175 109.015 39.3943 109.015 38.0088V38.0088C109.015 36.6232 107.892 35.5 106.507 35.5H101.631C100.246 35.5 99.1227 36.6232 99.1227 38.0088V38.0088C99.1227 39.3943 97.9995 40.5175 96.6139 40.5175H94.0613C91.266 40.5175 89 42.7836 89 45.5789V56.4387Z" fill="#DADBE6" fill-opacity="0.33"/>
</svg>
