<svg width="1061" height="609" viewBox="0 0 1061 609" fill="none" xmlns="http://www.w3.org/2000/svg">
<path d="M458.876 0H1061V609H634.167H458V607C458 595.954 466.954 587 478 587H558.865C569.911 587 578.865 578.046 578.865 567V565.585C578.865 554.54 569.911 545.585 558.865 545.585H517.055C506.009 545.585 497.055 536.631 497.055 525.585V510.256C497.055 499.211 506.009 490.256 517.055 490.256H599.225C610.27 490.256 619.225 481.302 619.225 470.256V440.915C619.225 429.869 610.27 420.915 599.225 420.915H551.96C540.915 420.915 531.96 411.961 531.96 400.915V398.337C531.96 387.291 540.915 378.337 551.96 378.337H586.135C597.181 378.337 606.135 369.383 606.135 358.337V333.861C606.135 322.816 597.181 313.861 586.135 313.861H514.086C504.68 313.861 497.055 306.236 497.055 296.83V296.83C497.055 287.424 504.68 279.799 514.086 279.799H631.949C642.994 279.799 651.949 270.845 651.949 259.799V256.004C651.949 244.959 642.994 236.004 631.949 236.004H544.325C533.279 236.004 524.325 227.05 524.325 216.004V207.344C524.325 196.298 533.279 187.344 544.325 187.344H625.404C636.45 187.344 645.404 178.389 645.404 167.344V156.25C645.404 145.204 636.45 136.25 625.404 136.25H598.865C587.819 136.25 578.865 127.296 578.865 116.25V94.2076C578.865 83.1619 569.911 74.2076 558.865 74.2076H478.876C467.831 74.2076 458.876 65.2532 458.876 54.2076V0Z" fill="#222A72"/>
<path d="M469 28.75C469 22.2607 474.261 17 480.75 17H485C489.142 17 492.5 20.3579 492.5 24.5V24.5C492.5 28.6421 495.858 32 500 32H509.5C513.642 32 517 28.6421 517 24.5V24.5C517 20.3579 520.358 17 524.5 17H620C626.627 17 632 22.3726 632 29V47C632 53.6274 626.627 59 620 59H481C474.373 59 469 53.6274 469 47V28.75Z" fill="#1A236F"/>
<path d="M693 226C693 219.373 698.373 214 705 214H826C832.627 214 838 219.373 838 226V244C838 250.627 832.627 256 826 256H741.56C737.832 256 734.81 252.978 734.81 249.25V249.25C734.81 245.522 731.788 242.5 728.06 242.5H722.879C719.151 242.5 716.129 245.522 716.129 249.25V249.25C716.129 252.978 713.107 256 709.379 256H704.564C698.178 256 693 250.822 693 244.436V226Z" fill="#1A236F"/>
<path d="M773 34C773 27.3726 778.373 22 785 22H795C798.59 22 801.5 24.9101 801.5 28.5V28.5C801.5 32.0899 804.41 35 808 35H817.5C821.09 35 824 32.0899 824 28.5V28.5C824 24.9101 826.91 22 830.5 22H924C930.627 22 936 27.3726 936 34V52C936 58.6274 930.627 64 924 64H785C778.373 64 773 58.6274 773 52V34Z" fill="#1A236F"/>
<path d="M611 379C611 372.373 616.373 367 623 367H641.742C645.332 367 648.242 369.91 648.242 373.5V373.5C648.242 377.09 651.152 380 654.742 380H671.144C674.734 380 677.644 377.09 677.644 373.5V373.5C677.644 369.91 680.554 367 684.144 367H812C818.627 367 824 372.373 824 379V397C824 403.627 818.627 409 812 409H623C616.373 409 611 403.627 611 397V379Z" fill="#1A236F"/>
<rect x="610" y="549" width="72" height="23" rx="11.5" fill="#1A236F"/>
<rect x="883" y="570" width="72" height="23" rx="11.5" fill="#1A236F"/>
<rect x="634" y="64" width="72" height="23" rx="11.5" fill="#1A236F"/>
<rect x="955" y="470" width="72" height="23" rx="11.5" fill="#222A72"/>
<path d="M766 483C766 476.925 770.925 472 777 472H780.5C784.642 472 788 475.358 788 479.5V479.5C788 483.642 791.358 487 795.5 487H802C806.142 487 809.5 483.642 809.5 479.5V479.5C809.5 475.358 812.858 472 817 472H917C923.627 472 929 477.373 929 484V502C929 508.627 923.627 514 917 514H778C771.373 514 766 508.627 766 502V483Z" fill="#1A236F"/>
<path d="M536 206.25C536 202.798 538.798 200 542.25 200H542.75C545.926 200 548.5 202.574 548.5 205.75V205.75C548.5 208.926 551.074 211.5 554.25 211.5H557.25C560.426 211.5 563 208.926 563 205.75V205.75C563 202.574 565.574 200 568.75 200H619C625.627 200 631 205.373 631 212V215C631 221.627 625.627 227 619 227H548C541.373 227 536 221.627 536 215V206.25Z" fill="#1A236F"/>
<path d="M516 520.25C516 516.798 518.798 514 522.25 514H522.75C525.926 514 528.5 516.574 528.5 519.75V519.75C528.5 522.926 531.074 525.5 534.25 525.5H537.25C540.426 525.5 543 522.926 543 519.75V519.75C543 516.574 545.574 514 548.75 514H599C605.627 514 611 519.373 611 526V529C611 535.627 605.627 541 599 541H528C521.373 541 516 535.627 516 529V520.25Z" fill="#1A236F"/>
<path d="M1061 333C1061 487.916 1061 483 1061 587C888.687 587 790 462.416 790 307.5C790 152.584 888.687 23 1061 23C1061 195 1061 178.084 1061 333Z" fill="#1A236E"/>
<rect x="952" y="405" width="72" height="23" rx="11.5" fill="#222A72"/>
<path d="M837 288C837 281.373 842.373 276 849 276H988C994.627 276 1000 281.373 1000 288V306C1000 312.627 994.627 318 988 318H896.25C892.798 318 890 315.202 890 311.75V311.75C890 308.298 887.202 305.5 883.75 305.5H871.75C868.298 305.5 865.5 308.298 865.5 311.75V311.75C865.5 315.202 862.702 318 859.25 318H849C842.373 318 837 312.627 837 306V288Z" fill="#222A72"/>
<path d="M976 148C976 141.373 981.373 136 988 136H997.5C1001.92 136 1005.5 139.582 1005.5 144V144C1005.5 148.418 1009.08 152 1013.5 152H1020.5C1024.92 152 1028.5 148.418 1028.5 144V144C1028.5 139.582 1032.08 136 1036.5 136H1061V178H988C981.373 178 976 172.627 976 166V148Z" fill="#222A72"/>
</svg>
