<svg width="1061" height="609" viewBox="0 0 1061 609" fill="none" xmlns="http://www.w3.org/2000/svg">
<path d="M240.931 567.914C241.594 568.373 242.5 567.898 242.5 567.091V564C242.5 561.791 244.291 560 246.5 560H309C311.209 560 313 561.791 313 564V577.5C313 579.709 311.209 581.5 309 581.5H246.5C244.291 581.5 242.5 579.709 242.5 577.5V574.563C242.5 573.833 241.744 573.349 241.081 573.655L238.838 574.69C237.513 575.302 236 574.334 236 572.874V568.317C236 566.704 237.812 565.754 239.138 566.673L240.931 567.914Z" fill="#E6E2E5" fill-opacity="0.33"/>
<path d="M163.931 379.914C164.594 380.373 165.5 379.898 165.5 379.091V376C165.5 373.791 167.291 372 169.5 372H232C234.209 372 236 373.791 236 376V389.5C236 391.709 234.209 393.5 232 393.5H169.5C167.291 393.5 165.5 391.709 165.5 389.5V386.563C165.5 385.833 164.744 385.349 164.081 385.655L161.838 386.69C160.513 387.302 159 386.334 159 384.874V380.317C159 378.704 160.812 377.754 162.138 378.673L163.931 379.914Z" fill="#E6E2E5" fill-opacity="0.33"/>
<path d="M15.9308 160.914C16.594 161.373 17.5 160.898 17.5 160.091V157C17.5 154.791 19.2909 153 21.5 153H84C86.2091 153 88 154.791 88 157V170.5C88 172.709 86.2091 174.5 84 174.5H21.5C19.2909 174.5 17.5 172.709 17.5 170.5V167.563C17.5 166.833 16.7436 166.349 16.0809 166.655L13.8381 167.69C12.5129 168.302 11 167.334 11 165.874V161.317C11 159.704 12.812 158.754 14.1384 159.673L15.9308 160.914Z" fill="#E6E2E5" fill-opacity="0.33"/>
<path d="M98 73C98 66.9249 102.925 62 109 62H112.5C116.642 62 120 65.3579 120 69.5V69.5C120 73.6421 123.358 77 127.5 77H134C138.142 77 141.5 73.6421 141.5 69.5V69.5C141.5 65.3579 144.858 62 149 62H249C255.627 62 261 67.3726 261 74V92C261 98.6274 255.627 104 249 104H148C144.41 104 141.5 106.91 141.5 110.5V110.5C141.5 114.09 138.59 117 135 117H126.5C122.91 117 120 114.09 120 110.5V110.5C120 106.91 117.09 104 113.5 104H109C102.925 104 98 99.0751 98 93V73Z" fill="#DADBE6" fill-opacity="0.33"/>
<path d="M306 459C306 452.925 310.925 448 317 448H320.5C324.642 448 328 451.358 328 455.5V455.5C328 459.642 331.358 463 335.5 463H342C346.142 463 349.5 459.642 349.5 455.5V455.5C349.5 451.358 352.858 448 357 448H457C463.627 448 469 453.373 469 460V478C469 484.627 463.627 490 457 490H356C352.41 490 349.5 492.91 349.5 496.5V496.5C349.5 500.09 346.59 503 343 503H334.5C330.91 503 328 500.09 328 496.5V496.5C328 492.91 325.09 490 321.5 490H317C310.925 490 306 485.075 306 479V459Z" fill="#DADBE6" fill-opacity="0.33"/>
<path d="M44 514C44 507.925 48.9249 503 55 503H58.5C62.6421 503 66 506.358 66 510.5V510.5C66 514.642 69.3579 518 73.5 518H80C84.1421 518 87.5 514.642 87.5 510.5V510.5C87.5 506.358 90.8579 503 95 503H195C201.627 503 207 508.373 207 515V533C207 539.627 201.627 545 195 545H56C49.3726 545 44 539.627 44 533V514Z" fill="#DADBE6" fill-opacity="0.33"/>
<path d="M252 223.46C252 229.833 257.167 235 263.54 235H267.58C271.722 235 275.08 238.358 275.08 242.5V242.5C275.08 246.642 278.438 250 282.58 250H292.5C296.642 250 300 246.642 300 242.5V242.5C300 238.358 303.358 235 307.5 235H411C417.627 235 423 229.627 423 223V204C423 197.373 417.627 192 411 192H264C257.373 192 252 197.373 252 204V223.46Z" fill="#DADBE6" fill-opacity="0.33"/>
<path d="M445 128.847C445 132.797 448.203 136 452.153 136H454.057C456.956 136 459.307 138.351 459.307 141.25V141.25C459.307 144.149 461.657 146.5 464.557 146.5H468.038C470.938 146.5 473.288 144.149 473.288 141.25V141.25C473.288 138.351 475.639 136 478.538 136H543C547.418 136 551 132.418 551 128V120C551 115.582 547.418 112 543 112H453C448.582 112 445 115.582 445 120V128.847Z" fill="#DADBE6" fill-opacity="0.33"/>
<path d="M349 341.153C349 337.203 352.203 334 356.153 334H359.2C361.468 334 363.307 335.839 363.307 338.107V338.107C363.307 340.375 365.146 342.214 367.414 342.214H373.181C375.45 342.214 377.288 340.375 377.288 338.107V338.107C377.288 335.839 379.127 334 381.395 334H447C451.418 334 455 337.582 455 342V349C455 353.418 451.418 357 447 357H380.038C378.52 357 377.288 358.231 377.288 359.75V359.75C377.288 361.269 376.057 362.5 374.538 362.5H366.057C364.538 362.5 363.307 361.269 363.307 359.75V359.75C363.307 358.231 362.076 357 360.557 357H356.153C352.203 357 349 353.797 349 349.847V341.153Z" fill="#DADBE6" fill-opacity="0.33"/>
<path d="M74 311.847C74 315.797 77.2027 319 81.1534 319H84.4158C86.5647 319 88.3067 317.258 88.3067 315.109V315.109C88.3067 312.96 90.0488 311.218 92.1977 311.218H98.3974C100.546 311.218 102.288 312.96 102.288 315.109V315.109C102.288 317.258 104.03 319 106.179 319H172C176.418 319 180 315.418 180 311V305.211C180 300.792 176.418 297.211 172 297.211H104.894C103.455 297.211 102.288 296.044 102.288 294.605V294.605C102.288 293.166 101.122 292 99.6831 292H90.912C89.4732 292 88.3067 293.166 88.3067 294.605V294.605C88.3067 296.044 87.1403 297.211 85.7015 297.211H81.1534C77.2027 297.211 74 300.413 74 304.364V311.847Z" fill="#DADBE6" fill-opacity="0.33"/>
<path d="M609.931 304.914C610.594 305.373 611.5 304.898 611.5 304.091V301C611.5 298.791 613.291 297 615.5 297H678C680.209 297 682 298.791 682 301V314.5C682 316.709 680.209 318.5 678 318.5H615.5C613.291 318.5 611.5 316.709 611.5 314.5V311.563C611.5 310.833 610.744 310.349 610.081 310.655L607.838 311.69C606.513 312.302 605 311.334 605 309.874V305.317C605 303.704 606.812 302.754 608.138 303.673L609.931 304.914Z" fill="#1A236E"/>
<path d="M458.876 0H1061V609H634.167H458V607C458 595.954 466.954 587 478 587H558.865C569.911 587 578.865 578.046 578.865 567V565.585C578.865 554.54 569.911 545.585 558.865 545.585H517.055C506.009 545.585 497.055 536.631 497.055 525.585V510.256C497.055 499.211 506.009 490.256 517.055 490.256H599.225C610.27 490.256 619.225 481.302 619.225 470.256V440.915C619.225 429.869 610.27 420.915 599.225 420.915H551.96C540.915 420.915 531.96 411.961 531.96 400.915V398.337C531.96 387.291 540.915 378.337 551.96 378.337H586.135C597.181 378.337 606.135 369.383 606.135 358.337V333.861C606.135 322.816 597.181 313.861 586.135 313.861H514.086C504.68 313.861 497.055 306.236 497.055 296.83V296.83C497.055 287.424 504.68 279.799 514.086 279.799H631.949C642.994 279.799 651.949 270.845 651.949 259.799V256.004C651.949 244.959 642.994 236.004 631.949 236.004H544.325C533.279 236.004 524.325 227.05 524.325 216.004V207.344C524.325 196.298 533.279 187.344 544.325 187.344H625.404C636.45 187.344 645.404 178.389 645.404 167.344V156.25C645.404 145.204 636.45 136.25 625.404 136.25H598.865C587.819 136.25 578.865 127.296 578.865 116.25V94.2076C578.865 83.1619 569.911 74.2076 558.865 74.2076H478.876C467.831 74.2076 458.876 65.2532 458.876 54.2076V0Z" fill="#222A72"/>
<path d="M469 26C469 21.0294 473.029 17 478 17H485C489.142 17 492.5 20.3579 492.5 24.5V24.5C492.5 28.6421 495.858 32 500 32H509.5C513.642 32 517 28.6421 517 24.5V24.5C517 20.3579 520.358 17 524.5 17H623C627.971 17 632 21.0294 632 26V50C632 54.9706 627.971 59 623 59H478C473.029 59 469 54.9706 469 50V26Z" fill="#1A236F"/>
<path d="M693 223C693 218.029 697.029 214 702 214H829C833.971 214 838 218.029 838 223V247C838 251.971 833.971 256 829 256H741.56C737.832 256 734.81 252.978 734.81 249.25V249.25C734.81 245.522 731.788 242.5 728.06 242.5H722.879C719.151 242.5 716.129 245.522 716.129 249.25V249.25C716.129 252.978 713.107 256 709.379 256H702C697.029 256 693 251.971 693 247V223Z" fill="#1A236F"/>
<path d="M773 38C773 31.3726 778.373 26 785 26H795.619C798.867 26 801.5 28.633 801.5 31.881V31.881C801.5 35.1289 804.133 37.7619 807.381 37.7619H818.119C821.367 37.7619 824 35.1289 824 31.881V31.881C824 28.633 826.633 26 829.881 26H924C930.627 26 936 31.3726 936 38V52C936 58.6274 930.627 64 924 64H831.25C827.246 64 824 67.2459 824 71.25V71.25C824 75.2541 820.754 78.5 816.75 78.5H808.75C804.746 78.5 801.5 75.2541 801.5 71.25V71.25C801.5 67.2459 798.254 64 794.25 64H785C778.373 64 773 58.6274 773 52V38Z" fill="#1A236F"/>
<path d="M611 379C611 372.373 616.373 367 623 367H641.742C645.332 367 648.242 369.91 648.242 373.5V373.5C648.242 377.09 651.152 380 654.742 380H671.144C674.734 380 677.644 377.09 677.644 373.5V373.5C677.644 369.91 680.554 367 684.144 367H812C818.627 367 824 372.373 824 379V397C824 403.627 818.627 409 812 409H683.144C680.107 409 677.644 411.462 677.644 414.5V414.5C677.644 417.538 675.182 420 672.144 420H653.742C650.705 420 648.242 417.538 648.242 414.5V414.5C648.242 411.462 645.78 409 642.742 409H623C616.373 409 611 403.627 611 397V379Z" fill="#1A236F"/>
<rect x="610" y="549" width="72" height="23" rx="11.5" fill="#1A236F"/>
<rect x="883" y="570" width="72" height="23" rx="11.5" fill="#1A236F"/>
<rect x="559" y="27" width="52" height="23" rx="8" fill="#222A72"/>
<rect x="955" y="470" width="72" height="23" rx="11.5" fill="#222A72"/>
<path d="M756 493C756 486.925 760.925 482 767 482H770.5C774.642 482 778 485.358 778 489.5V489.5C778 493.642 781.358 497 785.5 497H792C796.142 497 799.5 493.642 799.5 489.5V489.5C799.5 485.358 802.858 482 807 482H907C913.627 482 919 487.373 919 494V512C919 518.627 913.627 524 907 524H768C761.373 524 756 518.627 756 512V493Z" fill="#1A236F"/>
<path d="M536 206.25C536 202.798 538.798 200 542.25 200H542.75C545.926 200 548.5 202.574 548.5 205.75V205.75C548.5 208.926 551.074 211.5 554.25 211.5H557.25C560.426 211.5 563 208.926 563 205.75V205.75C563 202.574 565.574 200 568.75 200H619C625.627 200 631 205.373 631 212V215C631 221.627 625.627 227 619 227H548C541.373 227 536 221.627 536 215V206.25Z" fill="#1A236F"/>
<path d="M516 520.25C516 516.798 518.798 514 522.25 514H522.75C525.926 514 528.5 516.574 528.5 519.75V519.75C528.5 522.926 531.074 525.5 534.25 525.5H537.25C540.426 525.5 543 522.926 543 519.75V519.75C543 516.574 545.574 514 548.75 514H599C605.627 514 611 519.373 611 526V529C611 535.627 605.627 541 599 541H528C521.373 541 516 535.627 516 529V520.25Z" fill="#1A236F"/>
<path d="M1061 333C1061 487.916 1061 483 1061 587C888.687 587 790 462.416 790 307.5C790 152.584 888.687 23 1061 23C1061 195 1061 178.084 1061 333Z" fill="#1A236E"/>
<rect x="952" y="405" width="72" height="23" rx="11.5" fill="#222A72"/>
<path d="M837 288C837 281.373 842.373 276 849 276H988C994.627 276 1000 281.373 1000 288V306C1000 312.627 994.627 318 988 318H898.571C893.838 318 890 321.838 890 326.571V326.571C890 330.122 887.122 333 883.571 333H873C868.858 333 865.5 329.642 865.5 325.5V325.5C865.5 321.358 862.142 318 858 318H849C842.373 318 837 312.627 837 306V288Z" fill="#222A72"/>
<path d="M976 148C976 141.373 981.373 136 988 136H997.5C1001.92 136 1005.5 139.582 1005.5 144V144C1005.5 148.418 1009.08 152 1013.5 152H1020.5C1024.92 152 1028.5 148.418 1028.5 144V144C1028.5 139.582 1032.08 136 1036.5 136H1061V178H988C981.373 178 976 172.627 976 166V148Z" fill="#222A72"/>
<rect x="571" y="520" width="30" height="15" rx="7.5" fill="#222A72"/>
</svg>
