<svg width="1903" height="1902" viewBox="0 0 1903 1902" fill="none" xmlns="http://www.w3.org/2000/svg">
<path opacity="0.27" d="M1730.29 1042.88C1749.83 1148.45 1990 1295.6 1687.69 1661.68C1512.12 1874.29 1293.72 1762.39 1241.73 1776.79C1158.17 1799.95 1086.23 1891.46 999.499 1896.6C900.918 1902.25 379.145 1934.33 162.795 1697.72C145.516 1678.95 130.369 1658.46 117.613 1636.6C34.1125 1493.47 377.737 1445.4 44.9094 1113.55C-17.349 1051.41 -48.977 646.809 198.531 515.933C336.544 443.067 264.193 408.386 493.041 133.472C620.139 -19.0375 923.51 -38.0165 1077.72 66.7634C1093.76 77.6839 1109.4 87.8889 1124.66 97.3784C1484.72 322.641 1649.78 196.962 1829.57 445.101C2047.39 745.658 1704.88 905.907 1730.29 1042.88Z" fill="#6F7CB2"/>
<path opacity="0.27" d="M1317.54 1248.04C1291.37 1352.25 1449.86 1579.89 1020.27 1798.2C770.769 1925.01 617.441 1738.05 563.984 1731.21C477.843 1719.91 373.747 1776.12 292.183 1747.2C269.357 1739.12 222.355 1722.57 163.089 1697.72C145.809 1678.95 130.663 1658.46 117.906 1636.6C34.4062 1493.47 378.03 1445.4 45.2031 1113.55C-17.0553 1051.41 -48.6832 646.809 198.825 515.933C336.544 443.067 264.193 408.386 493.041 133.472C620.14 -19.0375 923.51 -38.0165 1077.72 66.7634C1093.76 77.6839 1109.41 87.8889 1124.66 97.3784L1127.42 101.671C1376.1 498.536 1594.5 429.681 1658.17 738.993C1731.99 1098.46 1351.46 1112.76 1317.54 1248.04Z" fill="#6F7CB2"/>
<path d="M264.193 1083.21C264.193 1083.21 263.313 978.998 350.862 972.616C438.411 966.233 437.707 1048.08 437.707 1048.08C437.707 1048.08 393.228 1125.92 322.285 1111.85C277.396 1102.98 264.193 1083.21 264.193 1083.21Z" fill="url(#paint0_linear)"/>
<path opacity="0.25" d="M1491.05 789.885C1491.05 789.885 1466.11 786.666 1457.78 819.145C1449.45 851.624 1456.9 896.981 1465.65 905.454C1474.39 913.927 1474.45 917.429 1492.52 905.454C1510.59 893.479 1531.84 851.454 1531.84 851.454C1531.84 851.454 1535.59 783.277 1491.05 789.885Z" fill="url(#paint1_linear)"/>
<path d="M1424.45 405.787C1424.29 406.806 1423.85 407.763 1423.16 408.555C1422.31 409.233 1421.27 409.664 1420.17 409.798L1398.57 414.712L1415 420.36C1416.37 420.738 1417.61 421.46 1418.58 422.45C1419.39 423.741 1419.74 425.246 1419.58 426.743L1419.88 443.689L1433.55 425.67L1447.63 436.967L1438.24 412.904C1444.65 411.465 1450.73 408.92 1456.2 405.392L1441.41 403.867C1432.32 402.85 1432.49 397.315 1429.21 390.593C1427.09 395.488 1425.49 400.58 1424.45 405.787Z" fill="white"/>
<path d="M1625.54 1229.96C1625.4 1230.97 1624.95 1231.91 1624.25 1232.67C1623.41 1233.37 1622.37 1233.82 1621.26 1233.97L1599.67 1238.89L1616.1 1244.53C1617.47 1244.89 1618.71 1245.61 1619.68 1246.62C1620.48 1247.91 1620.83 1249.42 1620.67 1250.92L1620.97 1267.86L1634.64 1249.84L1648.72 1261.14L1639.33 1237.08C1645.73 1235.61 1651.81 1233.07 1657.29 1229.57L1642.5 1227.98C1633.41 1227.02 1633.58 1221.49 1630.3 1214.77C1628.18 1219.66 1626.59 1224.75 1625.54 1229.96Z" fill="white"/>
<path d="M403.79 1511.03C403.644 1512.04 403.196 1512.98 402.499 1513.74C401.651 1514.44 400.612 1514.89 399.507 1515.04L377.913 1519.96L394.343 1525.61C395.708 1525.98 396.944 1526.7 397.922 1527.7C398.725 1528.99 399.075 1530.49 398.92 1531.99V1548.93L412.651 1530.92L426.734 1542.21L417.345 1518.15C423.753 1516.71 429.836 1514.16 435.301 1510.64L420.514 1509.06C411.419 1508.1 411.595 1502.56 408.309 1495.84C406.244 1500.73 404.729 1505.83 403.79 1511.03Z" fill="white"/>
<path d="M1422.99 1081.24C1422.91 1081.82 1422.67 1082.37 1422.28 1082.82C1421.78 1083.23 1421.17 1083.5 1420.52 1083.61L1407.96 1086.43L1417.53 1089.82C1418.32 1090.04 1419.03 1090.47 1419.58 1091.06C1420.04 1091.81 1420.25 1092.68 1420.17 1093.55V1103.38L1428.15 1092.87L1436.31 1099.37L1430.85 1085.42C1434.57 1084.55 1438.11 1083.06 1441.29 1081.01L1432.67 1080.11C1427.39 1079.54 1427.5 1076.32 1425.57 1072.42C1424.42 1075.28 1423.56 1078.23 1422.99 1081.24Z" fill="white"/>
<path d="M1101.48 1573.73C1101.28 1574.72 1100.84 1575.65 1100.19 1576.44C1099.33 1577.15 1098.27 1577.6 1097.14 1577.74L1075.61 1582.65L1092.04 1588.3C1093.4 1588.67 1094.64 1589.39 1095.62 1590.39C1096.42 1591.68 1096.77 1593.19 1096.61 1594.68V1611.63L1110.34 1593.61L1124.43 1604.91L1115.04 1580.85C1121.44 1579.38 1127.52 1576.84 1132.99 1573.33L1118.15 1571.75C1109.11 1570.79 1109.29 1565.26 1106 1558.53C1103.94 1563.43 1102.42 1568.52 1101.48 1573.73Z" fill="white"/>
<path d="M1267.95 272.539C1267.89 272.883 1267.75 273.21 1267.54 273.499C1267.22 273.707 1266.86 273.859 1266.49 273.951L1259.21 275.589L1264.79 277.566C1265.24 277.702 1265.65 277.956 1265.96 278.3C1266.23 278.724 1266.35 279.218 1266.31 279.712V285.361L1270.95 279.26L1275.76 282.989L1272.53 274.855C1274.62 274.337 1276.61 273.477 1278.4 272.313L1273.41 271.804C1270.3 271.466 1270.36 269.602 1269.25 267.286C1268.65 268.996 1268.22 270.754 1267.95 272.539Z" fill="white"/>
<path d="M1205.46 468.71C1205.39 469.046 1205.23 469.357 1204.99 469.614C1204.7 469.831 1204.36 469.985 1204 470.066L1196.72 471.704L1202.24 473.681C1202.71 473.802 1203.14 474.057 1203.47 474.415C1203.73 474.842 1203.85 475.334 1203.82 475.828V481.476L1208.46 475.376L1213.21 479.104L1210.04 470.97C1212.14 470.465 1214.12 469.604 1215.91 468.428L1210.86 467.92C1207.81 467.581 1207.87 465.717 1206.75 463.401C1206.12 465.121 1205.69 466.901 1205.46 468.71Z" fill="white"/>
<path d="M460.474 440.017C460.39 440.348 460.23 440.657 460.005 440.92C459.723 441.158 459.377 441.315 459.007 441.372L451.672 443.01L457.54 444.987C458.018 445.108 458.447 445.363 458.772 445.722C459.013 446.176 459.134 446.68 459.124 447.19V452.839L463.701 446.795L468.454 450.579L465.286 442.389C467.383 441.884 469.37 441.023 471.154 439.847L466.107 439.339C463.056 439 463.115 437.136 462 434.876C461.299 436.532 460.788 438.255 460.474 440.017Z" fill="white"/>
<path d="M280.154 558.749L294.882 527.117C293.262 535.063 294.183 543.296 297.522 550.728C299.289 554.387 302.132 557.466 305.699 559.585C309.267 561.704 313.401 562.768 317.591 562.646C308.202 562.646 295.997 564.68 294.589 573.548C293.708 579.196 297.464 587.556 291.831 589.985L283.85 571.289C277.94 574.584 271.459 576.823 264.721 577.897C266.803 574.16 269.961 571.081 273.816 569.029C268.412 563.477 264.133 557.002 261.2 549.937C266.381 552.829 271.071 556.468 275.107 560.726" fill="white"/>
<path d="M485.413 280.671L489.814 271.238C489.286 273.592 489.554 276.046 490.577 278.242C491.096 279.316 491.925 280.223 492.966 280.854C494.007 281.485 495.215 281.814 496.445 281.801C493.628 281.801 489.99 282.422 489.579 285.077C489.579 286.828 490.459 289.257 488.758 289.935L486.41 284.286C484.589 285.27 482.603 285.939 480.543 286.263C481.14 285.134 482.082 284.208 483.242 283.609C481.649 281.957 480.377 280.044 479.486 277.96C481.005 278.843 482.388 279.927 483.594 281.18" fill="white"/>
<path d="M848.655 141.966C879.537 137.215 902.137 118.705 899.135 100.622C896.133 82.54 868.665 71.7325 837.784 76.4833C806.902 81.2342 784.302 99.7442 787.304 117.827C790.306 135.909 817.774 146.717 848.655 141.966Z" fill="url(#paint2_linear)"/>
<defs>
<linearGradient id="paint0_linear" x1="21694.9" y1="26195.5" x2="11260.9" y2="37487" gradientUnits="userSpaceOnUse">
<stop stop-opacity="0"/>
<stop offset="0.91" stop-opacity="0.8"/>
<stop offset="1"/>
</linearGradient>
<linearGradient id="paint1_linear" x1="25513.6" y1="18217.4" x2="25018.5" y2="22010.9" gradientUnits="userSpaceOnUse">
<stop stop-opacity="0"/>
<stop offset="0.91" stop-opacity="0.8"/>
<stop offset="1"/>
</linearGradient>
<linearGradient id="paint2_linear" x1="23000.7" y1="633.144" x2="23162.3" y2="3130.43" gradientUnits="userSpaceOnUse">
<stop stop-color="white" stop-opacity="0"/>
<stop offset="1" stop-color="white"/>
</linearGradient>
</defs>
</svg>
